<svg xmlns="http://www.w3.org/2000/svg" xmlns:xlink="http://www.w3.org/1999/xlink" xmlns:lucid="lucid" width="961.5" height="861.5"><g transform="translate(-118.99999999999997 -59)" lucid:page-tab-id="0_0"><path d="M0 0h1500v1000H0z" fill="#fff"/><path d="M660 121.67V86a6 6 0 0 1 6-6h388a6 6 0 0 1 6 6v35.67z" stroke="#3a414a" fill="#fff"/><path d="M1060 121.67V894a6 6 0 0 1-6 6H666a6 6 0 0 1-6-6V121.67z" stroke="#3a414a" fill="none"/><use xlink:href="#a" transform="matrix(1,0,0,1,660,80) translate(125.40123456790124 25.444444444444443)"/><use xlink:href="#b" transform="matrix(1,0,0,1,660,80) translate(189.53703703703704 25.444444444444443)"/><path d="M140 451.33a6 6 0 0 1 6-6h108a6 6 0 0 1 6 6v228a6 6 0 0 1-6 6H146a6 6 0 0 1-6-6z" stroke="#3a414a" stroke-width="2" fill-opacity="0"/><path d="M480 331.33a6 6 0 0 1 6-6h148a6 6 0 0 1 6 6v108a6 6 0 0 1-6 6H486a6 6 0 0 1-6-6z" stroke="#3a414a" fill="#fff"/><use xlink:href="#c" transform="matrix(1,0,0,1,492,337.3333333333333) translate(28.80246913580247 29.77777777777778)"/><use xlink:href="#d" transform="matrix(1,0,0,1,492,337.3333333333333) translate(94.85185185185185 29.77777777777778)"/><use xlink:href="#e" transform="matrix(1,0,0,1,492,337.3333333333333) translate(2 54.66666666666667)"/><use xlink:href="#f" transform="matrix(1,0,0,1,492,337.3333333333333) translate(100.66666666666666 54.66666666666667)"/><use xlink:href="#g" transform="matrix(1,0,0,1,492,337.3333333333333) translate(17.027777777777786 78.66666666666667)"/><use xlink:href="#h" transform="matrix(1,0,0,1,492,337.3333333333333) translate(80.13888888888889 78.66666666666667)"/><path d="M480 646a6 6 0 0 1 6-6h148a6 6 0 0 1 6 6v108a6 6 0 0 1-6 6H486a6 6 0 0 1-6-6z" stroke="#3a414a" fill="#fff"/><use xlink:href="#i" transform="matrix(1,0,0,1,492,652) translate(38.98765432098766 53.77777777777778)"/><path d="M859 331.33a6 6 0 0 1 6-6h148a6 6 0 0 1 6 6v108a6 6 0 0 1-6 6H865a6 6 0 0 1-6-6z" stroke="#3a414a" fill="#fff"/><use xlink:href="#j" transform="matrix(1,0,0,1,871.0000999999995,337.3333333267938) translate(46.17901234567901 26.77777777777778)"/><use xlink:href="#k" transform="matrix(1,0,0,1,871.0000999999995,337.3333333267938) translate(20.5 53.44444444444445)"/><use xlink:href="#l" transform="matrix(1,0,0,1,871.0000999999995,337.3333333267938) translate(16.85802469135802 80.11111111111111)"/><path d="M859 486a6 6 0 0 1 6-6h148a6 6 0 0 1 6 6v108a6 6 0 0 1-6 6H865a6 6 0 0 1-6-6z" stroke="#3a414a" fill="#fff"/><use xlink:href="#m" transform="matrix(1,0,0,1,871.0000999999995,491.9999999934605) translate(3.864197530864203 38.77777777777778)"/><use xlink:href="#n" transform="matrix(1,0,0,1,871.0000999999995,491.9999999934605) translate(54.41975308641975 38.77777777777778)"/><use xlink:href="#o" transform="matrix(1,0,0,1,871.0000999999995,491.9999999934605) translate(16.240740740740748 65.44444444444446)"/><use xlink:href="#p" transform="matrix(1,0,0,1,871.0000999999995,491.9999999934605) translate(48.277777777777786 65.44444444444446)"/><path d="M859 746a6 6 0 0 1 6-6h148a6 6 0 0 1 6 6v108a6 6 0 0 1-6 6H865a6 6 0 0 1-6-6z" stroke="#3a414a" fill="#fff"/><use xlink:href="#q" transform="matrix(1,0,0,1,871.0000999999995,752) translate(10.098765432098773 53.77777777777778)"/><use xlink:href="#r" transform="matrix(1,0,0,1,871.0000999999995,752) translate(77.93827160493827 53.77777777777778)"/><path d="M219.75 499.75c0 10.9-8.84 19.75-19.75 19.75-10.9 0-19.75-8.84-19.75-19.75 0-10.9 8.84-19.75 19.75-19.75 10.9 0 19.75 8.84 19.75 19.75z" stroke="#000" fill="#fff"/><path d="M200 519.5v49.3a20.7 20.7 0 0 0 3.2 11.07L240 638m-40-63.2L160 638m0-98.75h80" stroke="#000" fill="none"/><path d="M160 486a6 6 0 0 1 6-6h68a6 6 0 0 1 6 6v168a6 6 0 0 1-6 6h-68a6 6 0 0 1-6-6z" fill="none"/><use xlink:href="#s" transform="matrix(1,0,0,1,80,638) translate(96.60493827160494 17.77777777777778)"/><path d="M682.04 386.33H641.5v-2h40.54zm157.96 0h-23.04v-2H840z" stroke="#3a414a" stroke-width=".05" fill="#3a414a"/><path d="M641.53 386.33h-1.03v-2h1.03z" fill="#3a414a"/><path d="M641.55 386.36h-1.07v-2.05h1.07zm-1.02-2v1.95h.97v-1.94z" stroke="#3a414a" stroke-width=".05" fill="#3a414a"/><path d="M855.26 385.33L841 389.97v-9.27z" fill="#3a414a"/><path d="M858.5 385.33l-18.5 6.02v-12.03zM842 388.6l10.03-3.27-10.03-3.26z" stroke="#3a414a" stroke-width=".05" fill="#3a414a"/><use xlink:href="#t" transform="matrix(1,0,0,1,682.0432598765431,374.6666667402348) translate(0 14.222222222222223)"/><use xlink:href="#u" transform="matrix(1,0,0,1,682.0432598765431,374.6666667402348) translate(31.259259259259263 14.222222222222223)"/><use xlink:href="#v" transform="matrix(1,0,0,1,682.0432598765431,374.6666667402348) translate(95.45679012345681 14.222222222222223)"/><path d="M472.37 694.43l-1.05 1.7-85.67-52.8h3.8zM354.85 622h-3.8l-89.72-55.3 1.05-1.7z" stroke="#3a414a" stroke-width=".05" fill="#3a414a"/><path d="M262.4 565.02l-1.05 1.7-.35-.2v-2.36z" fill="#3a414a"/><path d="M262.43 565l-1.07 1.76-.38-.24v-2.4zm-1.4 1.5l.3.2 1.03-1.67-1.34-.83z" stroke="#3a414a" stroke-width=".05" fill="#3a414a"/><path d="M477.83 698.97l-15-.27 8-13z" fill="#3a414a"/><path d="M479.5 700l-18.44-.34 9.85-15.98zm-14.9-2.27l11.55.2-5.38-10.22z" stroke="#3a414a" stroke-width=".05" fill="#3a414a"/><use xlink:href="#w" transform="matrix(1,0,0,1,302.15123456790116,622) translate(0 14.222222222222223)"/><path d="M561 638.5h-2v-62.92h2zm0-84.25h-2v-89.92h2z" stroke="#3a414a" stroke-width=".05" fill="#3a414a"/><path d="M561 639.5h-2v-1.03h2z" fill="#3a414a"/><path d="M561.02 639.52H559v-1.07H561zm-2-1.02v.98H561v-.98z" stroke="#3a414a" stroke-width=".05" fill="#3a414a"/><path d="M564.63 463.33h-9.26l4.63-14.26z" fill="#3a414a"/><path d="M566 464.33h-12l6-18.5zm-9.26-2h6.52L560 452.3z" stroke="#3a414a" stroke-width=".05" fill="#3a414a"/><use xlink:href="#x" transform="matrix(1,0,0,1,502.3703703703704,554.2471787562285) translate(0 14.222222222222223)"/><use xlink:href="#y" transform="matrix(1,0,0,1,502.3703703703704,554.2471787562285) translate(55.111111111111114 14.222222222222223)"/><use xlink:href="#z" transform="matrix(1,0,0,1,502.3703703703704,554.2471787562285) translate(99.50617283950618 14.222222222222223)"/><path d="M262.4 565.47l-1.26-1.54 94.6-77.93h3.13zm210.8-173.65l-88.43 72.85h-3.14l90.3-74.4z" stroke="#3a414a" stroke-width=".05" fill="#3a414a"/><path d="M262.43 565.45l-1.43 1.18v-2.6l.16-.12z" fill="#3a414a"/><path d="M262.46 565.46l-1.48 1.22v-2.65l.18-.16zm-1.44-1.4v2.52l1.37-1.13-1.25-1.5z" stroke="#3a414a" stroke-width=".05" fill="#3a414a"/><path d="M472.87 400.7l-9.7-11.8 14.8-2.32z" fill="#3a414a"/><path d="M473.22 402.67l-11.94-14.5 18.22-2.84zm-8.17-13.05l7.48 9.08 3.94-10.87z" stroke="#3a414a" stroke-width=".05" fill="#3a414a"/><use xlink:href="#A" transform="matrix(1,0,0,1,274.24999999999994,464.6666666666666) translate(0 14.222222222222223)"/><use xlink:href="#B" transform="matrix(1,0,0,1,274.24999999999994,464.6666666666666) translate(68.98765432098764 14.222222222222223)"/><use xlink:href="#C" transform="matrix(1,0,0,1,274.24999999999994,464.6666666666666) translate(109.38271604938271 14.222222222222223)"/><path d="M844 528.48l-1.17 1.63-80.02-56.77h3.46zM736.2 452h-3.46l-92-65.27 1.15-1.63z" stroke="#3a414a" stroke-width=".05" fill="#3a414a"/><path d="M641.9 385.1l-1.14 1.64-.26-.18v-2.45z" fill="#3a414a"/><path d="M641.95 385.1l-1.2 1.68-.27-.2v-2.52zm-1.43 1.45l.23.16 1.13-1.58-1.36-.96z" stroke="#3a414a" stroke-width=".05" fill="#3a414a"/><path d="M855.86 538.13l-14.32-4.48 5.37-7.56z" fill="#3a414a"/><path d="M858.5 540l-18.57-5.8 6.96-9.8zm-15.34-6.9l10.06 3.15-6.3-8.46z" stroke="#3a414a" stroke-width=".05" fill="#3a414a"/><use xlink:href="#D" transform="matrix(1,0,0,1,687.4012845679011,452.0000000335143) translate(0 14.222222222222223)"/><use xlink:href="#E" transform="matrix(1,0,0,1,687.4012845679011,452.0000000335143) translate(64.98765432098766 14.222222222222223)"/><use xlink:href="#F" transform="matrix(1,0,0,1,687.4012845679011,452.0000000335143) translate(94.61728395061729 14.222222222222223)"/><path d="M940 721h-2v-40.33h2zm0-61.67h-2V601.5h2z" stroke="#3a414a" stroke-width=".05" fill="#3a414a"/><path d="M940 601.53h-2v-1.03h2z" fill="#3a414a"/><path d="M940.02 601.55H938v-1.07H940zm-2-1.02v.97H940v-.98z" stroke="#3a414a" stroke-width=".05" fill="#3a414a"/><path d="M939 736.26L934.37 722h9.26z" fill="#3a414a"/><path d="M939 739.5l-6-18.5h12zm-3.26-16.5l3.26 10.03 3.26-10.03z" stroke="#3a414a" stroke-width=".05" fill="#3a414a"/><use xlink:href="#G" transform="matrix(1,0,0,1,867.9877543209872,659.3333333300636) translate(0 14.222222222222223)"/><use xlink:href="#E" transform="matrix(1,0,0,1,867.9877543209872,659.3333333300636) translate(74.02469135802471 14.222222222222223)"/><use xlink:href="#H" transform="matrix(1,0,0,1,867.9877543209872,659.3333333300636) translate(103.65432098765434 14.222222222222223)"/><path d="M201 793.96l.06.82.2.76.3.73.4.67.5.6.6.5.67.4.73.3.76.2.82.06H840v2H205.96l-1.06-.08-1.06-.26-1.02-.42-.94-.57-.83-.72-.72-.83-.57-.94-.42-1.02-.26-1.06-.08-1.06v-49.62h2zm0-92.2h-2v-14.43h2z" stroke="#3a414a" stroke-width=".05" fill="#3a414a"/><path d="M201 687.36h-2v-1.03h2z" fill="#3a414a"/><path d="M201.03 687.38h-2.06v-1.07h2.06zm-1.03-1.02h-.97v.97h1.94v-.97z" stroke="#3a414a" stroke-width=".05" fill="#3a414a"/><path d="M855.26 800L841 804.63v-9.26z" fill="#3a414a"/><path d="M858.5 800l-18.5 6v-12zm-16.5 3.26l10.03-3.26-10.03-3.26z" stroke="#3a414a" stroke-width=".05" fill="#3a414a"/><g><use xlink:href="#I" transform="matrix(1,0,0,1,132.02469135802468,701.752592069044) translate(0.0049999999999954525 14.222222222222223)"/><use xlink:href="#J" transform="matrix(1,0,0,1,132.02469135802468,701.752592069044) translate(104.44944444444445 14.222222222222223)"/><use xlink:href="#K" transform="matrix(1,0,0,1,132.02469135802468,701.752592069044) translate(12.770432098765433 35.55555555555556)"/><use xlink:href="#L" transform="matrix(1,0,0,1,132.02469135802468,701.752592069044) translate(62.005 35.55555555555556)"/></g><path d="M859 156.67a6 6 0 0 1 6-6h148a6 6 0 0 1 6 6v108a6 6 0 0 1-6 6H865a6 6 0 0 1-6-6z" stroke="#3a414a" fill="#fff"/><g><use xlink:href="#M" transform="matrix(1,0,0,1,871.0000999999995,162.66666666012713) translate(13.185185185185176 38.77777777777778)"/><use xlink:href="#N" transform="matrix(1,0,0,1,871.0000999999995,162.66666666012713) translate(47.660493827160494 65.44444444444446)"/></g><path d="M201 426.83h-2v-16.5h2zm656.5-215.16H206.04l-.82.06-.76.18-.73.3-.67.42-.6.5-.5.6-.4.68-.3.72-.2.76-.06.83v150.97h-2V216.63l.08-1.06.26-1.07.42-1 .57-.95.72-.84.83-.7.94-.57 1.02-.42 1.06-.25 1.06-.08H857.5z" stroke="#3a414a" stroke-width=".05" fill="#3a414a"/><path d="M858.5 211.67h-1.02v-2h1.02z" fill="#3a414a"/><path d="M858.52 211.7h-1.07v-2.06h1.07zm-1.02-2v1.94h.98v-1.95z" stroke="#3a414a" stroke-width=".05" fill="#3a414a"/><path d="M200 442.1l-4.63-14.27h9.26z" fill="#3a414a"/><path d="M200 445.33l-6-18.5h12zm-3.26-16.5l3.26 10.03 3.26-10.03z" stroke="#3a414a" stroke-width=".05" fill="#3a414a"/><g><use xlink:href="#O" transform="matrix(1,0,0,1,146.34567901234567,367.6666666666667) translate(29.95561728395062 14.222222222222223)"/><use xlink:href="#P" transform="matrix(1,0,0,1,146.34567901234567,367.6666666666667) translate(0.005000000000002558 35.55555555555556)"/></g><path d="M641.88 385.63l-1.08-1.68 90.22-57.9h3.7zm201.6-129.34l-75.5 48.43h-3.7l78.1-50.12z" stroke="#3a414a" stroke-width=".05" fill="#3a414a"/><path d="M641.9 385.62l-1.4.9v-2.38l.32-.2z" fill="#3a414a"/><path d="M641.94 385.63l-1.47.94v-2.44l.36-.23zm-1.42-1.47v2.32l1.35-.87-1.05-1.63z" stroke="#3a414a" stroke-width=".05" fill="#3a414a"/><path d="M846.27 258.8l-5-7.8 14.5-3.8z" fill="#3a414a"/><path d="M846.17 260.5l-6.5-10.1 18.83-4.94zm-3.32-8.87l3.52 5.5 6.68-8.17z" stroke="#3a414a" stroke-width=".05" fill="#3a414a"/><g><use xlink:href="#Q" transform="matrix(1,0,0,1,714.5124117874499,304.73044613994324) translate(0 14.222222222222223)"/></g><path d="M140 86a6 6 0 0 1 6-6h488a6 6 0 0 1 6 6v114.8a6 6 0 0 1-6 6H146a6 6 0 0 1-6-6z" stroke="#000" stroke-opacity="0" stroke-width="2" fill="#fff" fill-opacity="0"/><g><use xlink:href="#R" transform="matrix(1,0,0,1,144.99999999999997,85) translate(0 24.17777777777777)"/><use xlink:href="#S" transform="matrix(1,0,0,1,144.99999999999997,85) translate(91.67407407407407 24.17777777777777)"/><use xlink:href="#T" transform="matrix(1,0,0,1,144.99999999999997,85) translate(294.4148148148148 24.17777777777777)"/><use xlink:href="#U" transform="matrix(1,0,0,1,144.99999999999997,85) translate(0 60.44444444444442)"/><use xlink:href="#V" transform="matrix(1,0,0,1,144.99999999999997,85) translate(135.83209876543208 60.44444444444442)"/><use xlink:href="#W" transform="matrix(1,0,0,1,144.99999999999997,85) translate(320.3555555555555 60.44444444444442)"/></g><defs><path fill="#3a414a" d="M205 0l-28-72H64L36 0H1l101-248h38L239 0h-34zm-38-99l-47-123c-12 45-31 82-46 123h93" id="X"/><path fill="#3a414a" d="M9 0v-24l116-142H16v-24h144v24L44-24h123V0H9" id="Y"/><path fill="#3a414a" d="M84 4C-5 8 30-112 23-190h32v120c0 31 7 50 39 49 72-2 45-101 50-169h31l1 190h-30c-1-10 1-25-2-33-11 22-28 36-60 37" id="Z"/><path fill="#3a414a" d="M114-163C36-179 61-72 57 0H25l-1-190h30c1 12-1 29 2 39 6-27 23-49 58-41v29" id="aa"/><path fill="#3a414a" d="M100-194c63 0 86 42 84 106H49c0 40 14 67 53 68 26 1 43-12 49-29l28 8c-11 28-37 45-77 45C44 4 14-33 15-96c1-61 26-98 85-98zm52 81c6-60-76-77-97-28-3 7-6 17-6 28h103" id="ab"/><g id="a"><use transform="matrix(0.06172839506172839,0,0,0.06172839506172839,0,0)" xlink:href="#X"/><use transform="matrix(0.06172839506172839,0,0,0.06172839506172839,14.814814814814813,0)" xlink:href="#Y"/><use transform="matrix(0.06172839506172839,0,0,0.06172839506172839,25.925925925925924,0)" xlink:href="#Z"/><use transform="matrix(0.06172839506172839,0,0,0.06172839506172839,38.2716049382716,0)" xlink:href="#aa"/><use transform="matrix(0.06172839506172839,0,0,0.06172839506172839,45.61728395061728,0)" xlink:href="#ab"/></g><path fill="#3a414a" d="M185-189c-5-48-123-54-124 2 14 75 158 14 163 119 3 78-121 87-175 55-17-10-28-26-33-46l33-7c5 56 141 63 141-1 0-78-155-14-162-118-5-82 145-84 179-34 5 7 8 16 11 25" id="ac"/><path fill="#3a414a" d="M108 0H70L1-190h34L89-25l56-165h34" id="ad"/><path fill="#3a414a" d="M24-231v-30h32v30H24zM24 0v-190h32V0H24" id="ae"/><path fill="#3a414a" d="M96-169c-40 0-48 33-48 73s9 75 48 75c24 0 41-14 43-38l32 2c-6 37-31 61-74 61-59 0-76-41-82-99-10-93 101-131 147-64 4 7 5 14 7 22l-32 3c-4-21-16-35-41-35" id="af"/><path fill="#3a414a" d="M135-143c-3-34-86-38-87 0 15 53 115 12 119 90S17 21 10-45l28-5c4 36 97 45 98 0-10-56-113-15-118-90-4-57 82-63 122-42 12 7 21 19 24 35" id="ag"/><g id="b"><use transform="matrix(0.06172839506172839,0,0,0.06172839506172839,0,0)" xlink:href="#ac"/><use transform="matrix(0.06172839506172839,0,0,0.06172839506172839,14.814814814814813,0)" xlink:href="#ab"/><use transform="matrix(0.06172839506172839,0,0,0.06172839506172839,27.160493827160494,0)" xlink:href="#aa"/><use transform="matrix(0.06172839506172839,0,0,0.06172839506172839,34.50617283950617,0)" xlink:href="#ad"/><use transform="matrix(0.06172839506172839,0,0,0.06172839506172839,45.61728395061728,0)" xlink:href="#ae"/><use transform="matrix(0.06172839506172839,0,0,0.06172839506172839,50.49382716049382,0)" xlink:href="#af"/><use transform="matrix(0.06172839506172839,0,0,0.06172839506172839,61.60493827160494,0)" xlink:href="#ab"/><use transform="matrix(0.06172839506172839,0,0,0.06172839506172839,73.95061728395062,0)" xlink:href="#ag"/></g><path fill="#3a414a" d="M190 0L58-211 59 0H30v-248h39L202-35l-2-213h31V0h-41" id="ah"/><path fill="#3a414a" d="M232-93c-1 65-40 97-104 97C67 4 28-28 28-90v-158h33c8 89-33 224 67 224 102 0 64-133 71-224h33v155" id="ai"/><path fill="#3a414a" d="M195 0l-74-108L45 0H8l94-129-87-119h37l69 98 67-98h37l-84 118L233 0h-38" id="aj"/><path fill="#3a414a" d="M127-220V0H93v-220H8v-28h204v28h-85" id="ak"/><g id="c"><use transform="matrix(0.06172839506172839,0,0,0.06172839506172839,0,0)" xlink:href="#ah"/><use transform="matrix(0.06172839506172839,0,0,0.06172839506172839,15.987654320987653,0)" xlink:href="#ai"/><use transform="matrix(0.06172839506172839,0,0,0.06172839506172839,31.975308641975307,0)" xlink:href="#aj"/><use transform="matrix(0.06172839506172839,0,0,0.06172839506172839,46.79012345679012,0)" xlink:href="#ak"/></g><path fill="#3a414a" d="M126-127c33 6 58 20 58 59 0 88-139 92-164 29-3-8-5-16-6-25l32-3c6 27 21 44 54 44 32 0 52-15 52-46 0-38-36-46-79-43v-28c39 1 72-4 72-42 0-27-17-43-46-43-28 0-47 15-49 41l-32-3c6-42 35-63 81-64 48-1 79 21 79 65 0 36-21 52-52 59" id="al"/><use transform="matrix(0.06172839506172839,0,0,0.06172839506172839,0,0)" xlink:href="#al" id="d"/><path fill="#3a414a" d="M87 75C49 33 22-17 22-94c0-76 28-126 65-167h31c-38 41-64 92-64 168S80 34 118 75H87" id="am"/><path fill="#3a414a" d="M63-220v92h138v28H63V0H30v-248h175v28H63" id="an"/><path fill="#3a414a" d="M100-194c62-1 85 37 85 99 1 63-27 99-86 99S16-35 15-95c0-66 28-99 85-99zM99-20c44 1 53-31 53-75 0-43-8-75-51-75s-53 32-53 75 10 74 51 75" id="ao"/><path fill="#3a414a" d="M117-194c89-4 53 116 60 194h-32v-121c0-31-8-49-39-48C34-167 62-67 57 0H25l-1-190h30c1 10-1 24 2 32 11-22 29-35 61-36" id="ap"/><path fill="#3a414a" d="M59-47c-2 24 18 29 38 22v24C64 9 27 4 27-40v-127H5v-23h24l9-43h21v43h35v23H59v120" id="aq"/><path fill="#3a414a" d="M16-82v-28h88v28H16" id="ar"/><path fill="#3a414a" d="M85-194c31 0 48 13 60 33l-1-100h32l1 261h-30c-2-10 0-23-3-31C134-8 116 4 85 4 32 4 16-35 15-94c0-66 23-100 70-100zm9 24c-40 0-46 34-46 75 0 40 6 74 45 74 42 0 51-32 51-76 0-42-9-74-50-73" id="as"/><g id="e"><use transform="matrix(0.055555555555555546,0,0,0.055555555555555546,0,0)" xlink:href="#am"/><use transform="matrix(0.055555555555555546,0,0,0.055555555555555546,6.61111111111111,0)" xlink:href="#an"/><use transform="matrix(0.055555555555555546,0,0,0.055555555555555546,18.777777777777775,0)" xlink:href="#aa"/><use transform="matrix(0.055555555555555546,0,0,0.055555555555555546,25.388888888888886,0)" xlink:href="#ao"/><use transform="matrix(0.055555555555555546,0,0,0.055555555555555546,36.49999999999999,0)" xlink:href="#ap"/><use transform="matrix(0.055555555555555546,0,0,0.055555555555555546,47.6111111111111,0)" xlink:href="#aq"/><use transform="matrix(0.055555555555555546,0,0,0.055555555555555546,53.16666666666666,0)" xlink:href="#ar"/><use transform="matrix(0.055555555555555546,0,0,0.055555555555555546,59.777777777777764,0)" xlink:href="#ab"/><use transform="matrix(0.055555555555555546,0,0,0.055555555555555546,70.88888888888887,0)" xlink:href="#ap"/><use transform="matrix(0.055555555555555546,0,0,0.055555555555555546,81.99999999999999,0)" xlink:href="#as"/></g><path fill="#3a414a" d="M141-36C126-15 110 5 73 4 37 3 15-17 15-53c-1-64 63-63 125-63 3-35-9-54-41-54-24 1-41 7-42 31l-33-3c5-37 33-52 76-52 45 0 72 20 72 64v82c-1 20 7 32 28 27v20c-31 9-61-2-59-35zM48-53c0 20 12 33 32 33 41-3 63-29 60-74-43 2-92-5-92 41" id="at"/><g id="f"><use transform="matrix(0.055555555555555546,0,0,0.055555555555555546,0,0)" xlink:href="#at"/><use transform="matrix(0.055555555555555546,0,0,0.055555555555555546,11.111111111111109,0)" xlink:href="#ap"/><use transform="matrix(0.055555555555555546,0,0,0.055555555555555546,22.222222222222218,0)" xlink:href="#as"/></g><path fill="#3a414a" d="M212-179c-10-28-35-45-73-45-59 0-87 40-87 99 0 60 29 101 89 101 43 0 62-24 78-52l27 14C228-24 195 4 139 4 59 4 22-46 18-125c-6-104 99-153 187-111 19 9 31 26 39 46" id="au"/><path fill="#3a414a" d="M233-177c-1 41-23 64-60 70L243 0h-38l-65-103H63V0H30v-248c88 3 205-21 203 71zM63-129c60-2 137 13 137-47 0-61-80-42-137-45v92" id="av"/><path fill="#3a414a" d="M30-248c118-7 216 8 213 122C240-48 200 0 122 0H30v-248zM63-27c89 8 146-16 146-99s-60-101-146-95v194" id="aw"/><g id="g"><use transform="matrix(0.055555555555555546,0,0,0.055555555555555546,0,0)" xlink:href="#au"/><use transform="matrix(0.055555555555555546,0,0,0.055555555555555546,14.388888888888886,0)" xlink:href="#av"/><use transform="matrix(0.055555555555555546,0,0,0.055555555555555546,28.77777777777777,0)" xlink:href="#ai"/><use transform="matrix(0.055555555555555546,0,0,0.055555555555555546,43.16666666666666,0)" xlink:href="#aw"/></g><path fill="#3a414a" d="M30-248c87 1 191-15 191 75 0 78-77 80-158 76V0H30v-248zm33 125c57 0 124 11 124-50 0-59-68-47-124-48v98" id="ax"/><path fill="#3a414a" d="M33 0v-248h34V0H33" id="ay"/><path fill="#3a414a" d="M33-261c38 41 65 92 65 168S71 34 33 75H2C39 34 66-17 66-93S39-220 2-261h31" id="az"/><g id="h"><use transform="matrix(0.055555555555555546,0,0,0.055555555555555546,0,0)" xlink:href="#X"/><use transform="matrix(0.055555555555555546,0,0,0.055555555555555546,13.33333333333333,0)" xlink:href="#ax"/><use transform="matrix(0.055555555555555546,0,0,0.055555555555555546,26.66666666666666,0)" xlink:href="#ay"/><use transform="matrix(0.055555555555555546,0,0,0.055555555555555546,32.222222222222214,0)" xlink:href="#az"/></g><path fill="#3a414a" d="M106-169C34-169 62-67 57 0H25v-261h32l-1 103c12-21 28-36 61-36 89 0 53 116 60 194h-32v-121c2-32-8-49-39-48" id="aA"/><path fill="#3a414a" d="M101-251c68 0 85 55 85 127S166 4 100 4C33 4 14-52 14-124c0-73 17-127 87-127zm-1 229c47 0 54-49 54-102s-4-102-53-102c-51 0-55 48-55 102 0 53 5 102 54 102" id="aB"/><g id="i"><use transform="matrix(0.06172839506172839,0,0,0.06172839506172839,0,0)" xlink:href="#X"/><use transform="matrix(0.06172839506172839,0,0,0.06172839506172839,14.814814814814813,0)" xlink:href="#Z"/><use transform="matrix(0.06172839506172839,0,0,0.06172839506172839,27.160493827160494,0)" xlink:href="#aq"/><use transform="matrix(0.06172839506172839,0,0,0.06172839506172839,33.333333333333336,0)" xlink:href="#aA"/><use transform="matrix(0.06172839506172839,0,0,0.06172839506172839,45.67901234567901,0)" xlink:href="#aB"/></g><path fill="#3a414a" d="M140-251c81 0 123 46 123 126C263-53 228-8 163 1c7 30 30 48 69 40v23c-55 16-95-15-103-61C56-3 17-48 17-125c0-80 42-126 123-126zm0 227c63 0 89-41 89-101s-29-99-89-99c-61 0-89 39-89 99S79-25 140-24" id="aC"/><path fill="#3a414a" d="M30 0v-248h33v221h125V0H30" id="aD"/><g id="j"><use transform="matrix(0.06172839506172839,0,0,0.06172839506172839,0,0)" xlink:href="#ac"/><use transform="matrix(0.06172839506172839,0,0,0.06172839506172839,14.814814814814813,0)" xlink:href="#aC"/><use transform="matrix(0.06172839506172839,0,0,0.06172839506172839,32.09876543209876,0)" xlink:href="#aD"/></g><path fill="#3a414a" d="M115-194c53 0 69 39 70 98 0 66-23 100-70 100C84 3 66-7 56-30L54 0H23l1-261h32v101c10-23 28-34 59-34zm-8 174c40 0 45-34 45-75 0-40-5-75-45-74-42 0-51 32-51 76 0 43 10 73 51 73" id="aE"/><g id="k"><use transform="matrix(0.06172839506172839,0,0,0.06172839506172839,0,0)" xlink:href="#aw"/><use transform="matrix(0.06172839506172839,0,0,0.06172839506172839,15.987654320987653,0)" xlink:href="#at"/><use transform="matrix(0.06172839506172839,0,0,0.06172839506172839,28.333333333333332,0)" xlink:href="#aq"/><use transform="matrix(0.06172839506172839,0,0,0.06172839506172839,34.50617283950617,0)" xlink:href="#at"/><use transform="matrix(0.06172839506172839,0,0,0.06172839506172839,46.85185185185185,0)" xlink:href="#aE"/><use transform="matrix(0.06172839506172839,0,0,0.06172839506172839,59.197530864197525,0)" xlink:href="#at"/><use transform="matrix(0.06172839506172839,0,0,0.06172839506172839,71.5432098765432,0)" xlink:href="#ag"/><use transform="matrix(0.06172839506172839,0,0,0.06172839506172839,82.65432098765432,0)" xlink:href="#ab"/></g><path fill="#3a414a" d="M177-190C167-65 218 103 67 71c-23-6-38-20-44-43l32-5c15 47 100 32 89-28v-30C133-14 115 1 83 1 29 1 15-40 15-95c0-56 16-97 71-98 29-1 48 16 59 35 1-10 0-23 2-32h30zM94-22c36 0 50-32 50-73 0-42-14-75-50-75-39 0-46 34-46 75s6 73 46 73" id="aF"/><g id="l"><use transform="matrix(0.06172839506172839,0,0,0.06172839506172839,0,0)" xlink:href="#am"/><use transform="matrix(0.06172839506172839,0,0,0.06172839506172839,7.345679012345679,0)" xlink:href="#ax"/><use transform="matrix(0.06172839506172839,0,0,0.06172839506172839,22.160493827160494,0)" xlink:href="#ao"/><use transform="matrix(0.06172839506172839,0,0,0.06172839506172839,34.50617283950617,0)" xlink:href="#ag"/><use transform="matrix(0.06172839506172839,0,0,0.06172839506172839,45.61728395061728,0)" xlink:href="#aq"/><use transform="matrix(0.06172839506172839,0,0,0.06172839506172839,51.79012345679012,0)" xlink:href="#aF"/><use transform="matrix(0.06172839506172839,0,0,0.06172839506172839,64.1358024691358,0)" xlink:href="#aa"/><use transform="matrix(0.06172839506172839,0,0,0.06172839506172839,71.48148148148148,0)" xlink:href="#ab"/><use transform="matrix(0.06172839506172839,0,0,0.06172839506172839,83.82716049382717,0)" xlink:href="#ag"/><use transform="matrix(0.06172839506172839,0,0,0.06172839506172839,94.93827160493828,0)" xlink:href="#az"/></g><path fill="#3a414a" d="M160-131c35 5 61 23 61 61C221 17 115-2 30 0v-248c76 3 177-17 177 60 0 33-19 50-47 57zm-97-11c50-1 110 9 110-42 0-47-63-36-110-37v79zm0 115c55-2 124 14 124-45 0-56-70-42-124-44v89" id="aG"/><path fill="#3a414a" d="M24 0v-261h32V0H24" id="aH"/><g id="m"><use transform="matrix(0.06172839506172839,0,0,0.06172839506172839,0,0)" xlink:href="#aG"/><use transform="matrix(0.06172839506172839,0,0,0.06172839506172839,14.814814814814813,0)" xlink:href="#aH"/><use transform="matrix(0.06172839506172839,0,0,0.06172839506172839,19.691358024691354,0)" xlink:href="#ao"/><use transform="matrix(0.06172839506172839,0,0,0.06172839506172839,32.03703703703703,0)" xlink:href="#aE"/></g><g id="n"><use transform="matrix(0.06172839506172839,0,0,0.06172839506172839,0,0)" xlink:href="#ac"/><use transform="matrix(0.06172839506172839,0,0,0.06172839506172839,14.814814814814813,0)" xlink:href="#aq"/><use transform="matrix(0.06172839506172839,0,0,0.06172839506172839,20.98765432098765,0)" xlink:href="#ao"/><use transform="matrix(0.06172839506172839,0,0,0.06172839506172839,33.33333333333333,0)" xlink:href="#aa"/><use transform="matrix(0.06172839506172839,0,0,0.06172839506172839,40.679012345679006,0)" xlink:href="#at"/><use transform="matrix(0.06172839506172839,0,0,0.06172839506172839,53.02469135802468,0)" xlink:href="#aF"/><use transform="matrix(0.06172839506172839,0,0,0.06172839506172839,65.37037037037037,0)" xlink:href="#ab"/></g><path fill="#3a414a" d="M101-234c-31-9-42 10-38 44h38v23H63V0H32v-167H5v-23h27c-7-52 17-82 69-68v24" id="aI"/><g id="o"><use transform="matrix(0.06172839506172839,0,0,0.06172839506172839,0,0)" xlink:href="#aI"/><use transform="matrix(0.06172839506172839,0,0,0.06172839506172839,6.172839506172839,0)" xlink:href="#ao"/><use transform="matrix(0.06172839506172839,0,0,0.06172839506172839,18.51851851851852,0)" xlink:href="#aa"/></g><path fill="#3a414a" d="M210-169c-67 3-38 105-44 169h-31v-121c0-29-5-50-35-48C34-165 62-65 56 0H25l-1-190h30c1 10-1 24 2 32 10-44 99-50 107 0 11-21 27-35 58-36 85-2 47 119 55 194h-31v-121c0-29-5-49-35-48" id="aJ"/><g id="p"><use transform="matrix(0.06172839506172839,0,0,0.06172839506172839,0,0)" xlink:href="#ae"/><use transform="matrix(0.06172839506172839,0,0,0.06172839506172839,4.876543209876543,0)" xlink:href="#aJ"/><use transform="matrix(0.06172839506172839,0,0,0.06172839506172839,23.33333333333333,0)" xlink:href="#at"/><use transform="matrix(0.06172839506172839,0,0,0.06172839506172839,35.679012345679006,0)" xlink:href="#aF"/><use transform="matrix(0.06172839506172839,0,0,0.06172839506172839,48.02469135802468,0)" xlink:href="#ab"/><use transform="matrix(0.06172839506172839,0,0,0.06172839506172839,60.37037037037036,0)" xlink:href="#ag"/></g><g id="q"><use transform="matrix(0.06172839506172839,0,0,0.06172839506172839,0,0)" xlink:href="#ay"/><use transform="matrix(0.06172839506172839,0,0,0.06172839506172839,6.172839506172839,0)" xlink:href="#aJ"/><use transform="matrix(0.06172839506172839,0,0,0.06172839506172839,24.629629629629626,0)" xlink:href="#at"/><use transform="matrix(0.06172839506172839,0,0,0.06172839506172839,36.9753086419753,0)" xlink:href="#aF"/><use transform="matrix(0.06172839506172839,0,0,0.06172839506172839,49.32098765432098,0)" xlink:href="#ab"/></g><g id="r"><use transform="matrix(0.06172839506172839,0,0,0.06172839506172839,0,0)" xlink:href="#au"/><use transform="matrix(0.06172839506172839,0,0,0.06172839506172839,15.987654320987653,0)" xlink:href="#aw"/><use transform="matrix(0.06172839506172839,0,0,0.06172839506172839,31.975308641975307,0)" xlink:href="#ah"/></g><g id="s"><use transform="matrix(0.06172839506172839,0,0,0.06172839506172839,0,0)" xlink:href="#ai"/><use transform="matrix(0.06172839506172839,0,0,0.06172839506172839,15.987654320987653,0)" xlink:href="#ag"/><use transform="matrix(0.06172839506172839,0,0,0.06172839506172839,27.098765432098766,0)" xlink:href="#ab"/><use transform="matrix(0.06172839506172839,0,0,0.06172839506172839,39.44444444444444,0)" xlink:href="#aa"/></g><path fill="#333" d="M147 0H94L2-248h55l64 206c17-72 42-137 63-206h54" id="aK"/><path fill="#333" d="M25-224v-37h50v37H25zM25 0v-190h50V0H25" id="aL"/><path fill="#333" d="M133-34C117-15 103 5 69 4 32 3 11-16 11-54c-1-60 55-63 116-61 1-26-3-47-28-47-18 1-26 9-28 27l-52-2c7-38 36-58 82-57s74 22 75 68l1 82c-1 14 12 18 25 15v27c-30 8-71 5-69-32zm-48 3c29 0 43-24 42-57-32 0-66-3-65 30 0 17 8 27 23 27" id="aM"/><g id="t"><use transform="matrix(0.04938271604938272,0,0,0.04938271604938272,0,0)" xlink:href="#aK"/><use transform="matrix(0.04938271604938272,0,0,0.04938271604938272,11.506172839506174,0)" xlink:href="#aL"/><use transform="matrix(0.04938271604938272,0,0,0.04938271604938272,16.444444444444446,0)" xlink:href="#aM"/></g><path fill="#333" d="M24-248c93 1 206-16 204 79-1 75-69 88-152 82V0H24v-248zm52 121c47 0 100 7 100-41 0-47-54-39-100-39v80" id="aN"/><path fill="#333" d="M135-150c-39-12-60 13-60 57V0H25l-1-190h47c2 13-1 29 3 40 6-28 27-53 61-41v41" id="aO"/><path fill="#333" d="M137-138c1-29-70-34-71-4 15 46 118 7 119 86 1 83-164 76-172 9l43-7c4 19 20 25 44 25 33 8 57-30 24-41C81-84 22-81 20-136c-2-80 154-74 161-7" id="aP"/><path fill="#333" d="M220-157c-53 9-28 100-34 157h-49v-107c1-27-5-49-29-50C55-147 81-57 75 0H25l-1-190h47c2 12-1 28 3 38 10-53 101-56 108 0 13-22 24-43 59-42 82 1 51 116 57 194h-49v-107c-1-25-5-48-29-50" id="aQ"/><g id="u"><use transform="matrix(0.04938271604938272,0,0,0.04938271604938272,0,0)" xlink:href="#aN"/><use transform="matrix(0.04938271604938272,0,0,0.04938271604938272,11.851851851851853,0)" xlink:href="#aO"/><use transform="matrix(0.04938271604938272,0,0,0.04938271604938272,18.765432098765434,0)" xlink:href="#aL"/><use transform="matrix(0.04938271604938272,0,0,0.04938271604938272,23.703703703703706,0)" xlink:href="#aP"/><use transform="matrix(0.04938271604938272,0,0,0.04938271604938272,33.580246913580254,0)" xlink:href="#aQ"/><use transform="matrix(0.04938271604938272,0,0,0.04938271604938272,49.38271604938272,0)" xlink:href="#aM"/></g><path fill="#333" d="M140-251c80 0 125 45 125 126S219 4 139 4C58 4 15-44 15-125s44-126 125-126zm-1 214c52 0 73-35 73-88 0-50-21-86-72-86-52 0-73 35-73 86s22 88 72 88" id="aR"/><path fill="#333" d="M135-194c87-1 58 113 63 194h-50c-7-57 23-157-34-157-59 0-34 97-39 157H25l-1-190h47c2 12-1 28 3 38 12-26 28-41 61-42" id="aS"/><path fill="#333" d="M25 0v-261h50V0H25" id="aT"/><path fill="#333" d="M123 10C108 53 80 86 19 72V37c35 8 53-11 59-39L3-190h52l48 148c12-52 28-100 44-148h51" id="aU"/><g id="v"><use transform="matrix(0.04938271604938272,0,0,0.04938271604938272,0,0)" xlink:href="#aR"/><use transform="matrix(0.04938271604938272,0,0,0.04938271604938272,13.827160493827162,0)" xlink:href="#aS"/><use transform="matrix(0.04938271604938272,0,0,0.04938271604938272,24.641975308641975,0)" xlink:href="#aT"/><use transform="matrix(0.04938271604938272,0,0,0.04938271604938272,29.58024691358025,0)" xlink:href="#aU"/></g><path fill="#333" d="M24 0v-248h195v40H76v63h132v40H76v65h150V0H24" id="aV"/><path fill="#333" d="M4 7l51-268h42L46 7H4" id="aW"/><path fill="#333" d="M231 0h-52l-39-155L100 0H48L-1-190h46L77-45c9-52 24-97 36-145h53l37 145 32-145h46" id="aX"/><path fill="#333" d="M110-194c64 0 96 36 96 99 0 64-35 99-97 99-61 0-95-36-95-99 0-62 34-99 96-99zm-1 164c35 0 45-28 45-65 0-40-10-65-43-65-34 0-45 26-45 65 0 36 10 65 43 65" id="aY"/><path fill="#333" d="M88-194c31-1 46 15 58 34l-1-101h50l1 261h-48c-2-10 0-23-3-31C134-8 116 4 84 4 32 4 16-41 15-95c0-56 19-97 73-99zm17 164c33 0 40-30 41-66 1-37-9-64-41-64s-38 30-39 65c0 43 13 65 39 65" id="aZ"/><g id="w"><use transform="matrix(0.04938271604938272,0,0,0.04938271604938272,0,0)" xlink:href="#aV"/><use transform="matrix(0.04938271604938272,0,0,0.04938271604938272,11.851851851851853,0)" xlink:href="#aQ"/><use transform="matrix(0.04938271604938272,0,0,0.04938271604938272,27.654320987654323,0)" xlink:href="#aM"/><use transform="matrix(0.04938271604938272,0,0,0.04938271604938272,37.53086419753087,0)" xlink:href="#aL"/><use transform="matrix(0.04938271604938272,0,0,0.04938271604938272,42.46913580246914,0)" xlink:href="#aT"/><use transform="matrix(0.04938271604938272,0,0,0.04938271604938272,47.40740740740741,0)" xlink:href="#aW"/><use transform="matrix(0.04938271604938272,0,0,0.04938271604938272,52.345679012345684,0)" xlink:href="#aN"/><use transform="matrix(0.04938271604938272,0,0,0.04938271604938272,64.19753086419753,0)" xlink:href="#aM"/><use transform="matrix(0.04938271604938272,0,0,0.04938271604938272,74.07407407407408,0)" xlink:href="#aP"/><use transform="matrix(0.04938271604938272,0,0,0.04938271604938272,83.95061728395062,0)" xlink:href="#aP"/><use transform="matrix(0.04938271604938272,0,0,0.04938271604938272,93.82716049382717,0)" xlink:href="#aX"/><use transform="matrix(0.04938271604938272,0,0,0.04938271604938272,107.65432098765433,0)" xlink:href="#aY"/><use transform="matrix(0.04938271604938272,0,0,0.04938271604938272,118.46913580246914,0)" xlink:href="#aO"/><use transform="matrix(0.04938271604938272,0,0,0.04938271604938272,125.38271604938272,0)" xlink:href="#aZ"/></g><path fill="#333" d="M199 0l-22-63H83L61 0H9l90-248h61L250 0h-51zm-33-102l-36-108c-10 38-24 72-36 108h72" id="ba"/><path fill="#333" d="M85 4C-2 5 27-109 22-190h50c7 57-23 150 33 157 60-5 35-97 40-157h50l1 190h-47c-2-12 1-28-3-38-12 25-28 42-61 42" id="bb"/><path fill="#333" d="M115-3C79 11 28 4 28-45v-112H4v-33h27l15-45h31v45h36v33H77v99c-1 23 16 31 38 25v30" id="bc"/><path fill="#333" d="M114-157C55-157 80-60 75 0H25v-261h50l-1 109c12-26 28-41 61-42 86-1 58 113 63 194h-50c-7-57 23-157-34-157" id="bd"/><path fill="#333" d="M101-251c68 0 84 54 84 127C185-50 166 4 99 4S15-52 14-124c-1-75 17-127 87-127zm-1 216c37-5 36-46 36-89s4-89-36-89c-39 0-36 45-36 89 0 43-3 85 36 89" id="be"/><g id="x"><use transform="matrix(0.04938271604938272,0,0,0.04938271604938272,0,0)" xlink:href="#ba"/><use transform="matrix(0.04938271604938272,0,0,0.04938271604938272,12.790123456790125,0)" xlink:href="#bb"/><use transform="matrix(0.04938271604938272,0,0,0.04938271604938272,23.60493827160494,0)" xlink:href="#bc"/><use transform="matrix(0.04938271604938272,0,0,0.04938271604938272,29.481481481481485,0)" xlink:href="#bd"/><use transform="matrix(0.04938271604938272,0,0,0.04938271604938272,40.2962962962963,0)" xlink:href="#be"/></g><path fill="#333" d="M238-95c0 69-44 99-111 99C63 4 22-25 22-93v-155h51v151c-1 38 19 59 55 60 90 1 49-130 58-211h52v153" id="bf"/><path fill="#333" d="M185-48c-13 30-37 53-82 52C43 2 14-33 14-96s30-98 90-98c62 0 83 45 84 108H66c0 31 8 55 39 56 18 0 30-7 34-22zm-45-69c5-46-57-63-70-21-2 6-4 13-4 21h74" id="bg"/><g id="y"><use transform="matrix(0.04938271604938272,0,0,0.04938271604938272,0,0)" xlink:href="#bf"/><use transform="matrix(0.04938271604938272,0,0,0.04938271604938272,12.790123456790125,0)" xlink:href="#aP"/><use transform="matrix(0.04938271604938272,0,0,0.04938271604938272,22.66666666666667,0)" xlink:href="#bg"/><use transform="matrix(0.04938271604938272,0,0,0.04938271604938272,32.543209876543216,0)" xlink:href="#aO"/></g><path fill="#333" d="M24 0v-248h52V0H24" id="bh"/><g id="z"><use transform="matrix(0.04938271604938272,0,0,0.04938271604938272,0,0)" xlink:href="#bh"/><use transform="matrix(0.04938271604938272,0,0,0.04938271604938272,4.938271604938272,0)" xlink:href="#aZ"/></g><path fill="#333" d="M190-63c-7 42-38 67-86 67-59 0-84-38-90-98-12-110 154-137 174-36l-49 2c-2-19-15-32-35-32-30 0-35 28-38 64-6 74 65 87 74 30" id="bi"/><g id="A"><use transform="matrix(0.04938271604938272,0,0,0.04938271604938272,0,0)" xlink:href="#bh"/><use transform="matrix(0.04938271604938272,0,0,0.04938271604938272,4.938271604938272,0)" xlink:href="#aS"/><use transform="matrix(0.04938271604938272,0,0,0.04938271604938272,15.753086419753087,0)" xlink:href="#bc"/><use transform="matrix(0.04938271604938272,0,0,0.04938271604938272,21.62962962962963,0)" xlink:href="#bg"/><use transform="matrix(0.04938271604938272,0,0,0.04938271604938272,31.506172839506174,0)" xlink:href="#aO"/><use transform="matrix(0.04938271604938272,0,0,0.04938271604938272,38.41975308641975,0)" xlink:href="#aM"/><use transform="matrix(0.04938271604938272,0,0,0.04938271604938272,48.2962962962963,0)" xlink:href="#bi"/><use transform="matrix(0.04938271604938272,0,0,0.04938271604938272,58.17283950617284,0)" xlink:href="#bc"/></g><g id="B"><use transform="matrix(0.04938271604938272,0,0,0.04938271604938272,0,0)" xlink:href="#aX"/><use transform="matrix(0.04938271604938272,0,0,0.04938271604938272,13.827160493827162,0)" xlink:href="#aL"/><use transform="matrix(0.04938271604938272,0,0,0.04938271604938272,18.765432098765434,0)" xlink:href="#bc"/><use transform="matrix(0.04938271604938272,0,0,0.04938271604938272,24.641975308641978,0)" xlink:href="#bd"/></g><path fill="#333" d="M76-208v77h127v40H76V0H24v-248h183v40H76" id="bj"/><path fill="#333" d="M14-72v-43h91v43H14" id="bk"/><g id="C"><use transform="matrix(0.04938271604938272,0,0,0.04938271604938272,0,0)" xlink:href="#bj"/><use transform="matrix(0.04938271604938272,0,0,0.04938271604938272,10.814814814814815,0)" xlink:href="#aO"/><use transform="matrix(0.04938271604938272,0,0,0.04938271604938272,17.728395061728396,0)" xlink:href="#aY"/><use transform="matrix(0.04938271604938272,0,0,0.04938271604938272,28.543209876543205,0)" xlink:href="#aS"/><use transform="matrix(0.04938271604938272,0,0,0.04938271604938272,39.358024691358025,0)" xlink:href="#bc"/><use transform="matrix(0.04938271604938272,0,0,0.04938271604938272,45.23456790123457,0)" xlink:href="#bk"/><use transform="matrix(0.04938271604938272,0,0,0.04938271604938272,51.111111111111114,0)" xlink:href="#bg"/><use transform="matrix(0.04938271604938272,0,0,0.04938271604938272,60.98765432098766,0)" xlink:href="#aS"/><use transform="matrix(0.04938271604938272,0,0,0.04938271604938272,71.80246913580247,0)" xlink:href="#aZ"/></g><path fill="#333" d="M135-194c53 0 70 44 70 98 0 56-19 98-73 100-31 1-45-17-59-34 3 33 2 69 2 105H25l-1-265h48c2 10 0 23 3 31 11-24 29-35 60-35zM114-30c33 0 39-31 40-66 0-38-9-64-40-64-56 0-55 130 0 130" id="bl"/><g id="D"><use transform="matrix(0.04938271604938272,0,0,0.04938271604938272,0,0)" xlink:href="#bf"/><use transform="matrix(0.04938271604938272,0,0,0.04938271604938272,12.790123456790125,0)" xlink:href="#bl"/><use transform="matrix(0.04938271604938272,0,0,0.04938271604938272,23.60493827160494,0)" xlink:href="#aT"/><use transform="matrix(0.04938271604938272,0,0,0.04938271604938272,28.543209876543212,0)" xlink:href="#aY"/><use transform="matrix(0.04938271604938272,0,0,0.04938271604938272,39.358024691358025,0)" xlink:href="#aM"/><use transform="matrix(0.04938271604938272,0,0,0.04938271604938272,49.23456790123457,0)" xlink:href="#aZ"/></g><path fill="#333" d="M128 0H69L1-190h53L99-40l48-150h52" id="bm"/><g id="E"><use transform="matrix(0.04938271604938272,0,0,0.04938271604938272,0,0)" xlink:href="#bm"/><use transform="matrix(0.04938271604938272,0,0,0.04938271604938272,9.876543209876544,0)" xlink:href="#aL"/><use transform="matrix(0.04938271604938272,0,0,0.04938271604938272,14.814814814814817,0)" xlink:href="#aM"/></g><g id="F"><use transform="matrix(0.04938271604938272,0,0,0.04938271604938272,0,0)" xlink:href="#ba"/><use transform="matrix(0.04938271604938272,0,0,0.04938271604938272,12.790123456790125,0)" xlink:href="#aN"/><use transform="matrix(0.04938271604938272,0,0,0.04938271604938272,24.641975308641978,0)" xlink:href="#bh"/></g><path fill="#333" d="M24-248c120-7 223 5 221 122C244-46 201 0 124 0H24v-248zM76-40c74 7 117-18 117-86 0-67-45-88-117-82v168" id="bn"/><g id="G"><use transform="matrix(0.04938271604938272,0,0,0.04938271604938272,0,0)" xlink:href="#bn"/><use transform="matrix(0.04938271604938272,0,0,0.04938271604938272,12.790123456790125,0)" xlink:href="#bg"/><use transform="matrix(0.04938271604938272,0,0,0.04938271604938272,22.66666666666667,0)" xlink:href="#aT"/><use transform="matrix(0.04938271604938272,0,0,0.04938271604938272,27.604938271604947,0)" xlink:href="#aL"/><use transform="matrix(0.04938271604938272,0,0,0.04938271604938272,32.543209876543216,0)" xlink:href="#bm"/><use transform="matrix(0.04938271604938272,0,0,0.04938271604938272,42.41975308641976,0)" xlink:href="#bg"/><use transform="matrix(0.04938271604938272,0,0,0.04938271604938272,52.2962962962963,0)" xlink:href="#aO"/><use transform="matrix(0.04938271604938272,0,0,0.04938271604938272,59.209876543209894,0)" xlink:href="#aP"/></g><path fill="#333" d="M67-125c0 53 21 87 73 88 37 1 54-22 65-47l45 17C233-25 199 4 140 4 58 4 20-42 15-125 8-235 124-281 211-232c18 10 29 29 36 50l-46 12c-8-25-30-41-62-41-52 0-71 34-72 86" id="bo"/><path fill="#333" d="M175 0L67-191c6 58 2 128 3 191H24v-248h59L193-55c-6-58-2-129-3-193h46V0h-61" id="bp"/><g id="H"><use transform="matrix(0.04938271604938272,0,0,0.04938271604938272,0,0)" xlink:href="#bo"/><use transform="matrix(0.04938271604938272,0,0,0.04938271604938272,12.790123456790125,0)" xlink:href="#bn"/><use transform="matrix(0.04938271604938272,0,0,0.04938271604938272,25.58024691358025,0)" xlink:href="#bp"/></g><path fill="#333" d="M136-208V0H84v-208H4v-40h212v40h-80" id="bq"/><path fill="#333" d="M135-194c52 0 70 43 70 98 0 56-19 99-73 100-30 1-46-15-58-35L72 0H24l1-261h50v104c11-23 29-37 60-37zM114-30c31 0 40-27 40-66 0-37-7-63-39-63s-41 28-41 65c0 36 8 64 40 64" id="br"/><g id="I"><use transform="matrix(0.04938271604938272,0,0,0.04938271604938272,0,0)" xlink:href="#bq"/><use transform="matrix(0.04938271604938272,0,0,0.04938271604938272,10.814814814814815,0)" xlink:href="#bd"/><use transform="matrix(0.04938271604938272,0,0,0.04938271604938272,21.62962962962963,0)" xlink:href="#bb"/><use transform="matrix(0.04938271604938272,0,0,0.04938271604938272,32.44444444444444,0)" xlink:href="#aQ"/><use transform="matrix(0.04938271604938272,0,0,0.04938271604938272,48.24691358024691,0)" xlink:href="#br"/><use transform="matrix(0.04938271604938272,0,0,0.04938271604938272,59.06172839506172,0)" xlink:href="#aS"/><use transform="matrix(0.04938271604938272,0,0,0.04938271604938272,69.87654320987654,0)" xlink:href="#aM"/><use transform="matrix(0.04938271604938272,0,0,0.04938271604938272,79.75308641975309,0)" xlink:href="#aL"/><use transform="matrix(0.04938271604938272,0,0,0.04938271604938272,84.69135802469137,0)" xlink:href="#aT"/><use transform="matrix(0.04938271604938272,0,0,0.04938271604938272,89.62962962962965,0)" xlink:href="#aP"/></g><g id="J"><use transform="matrix(0.04938271604938272,0,0,0.04938271604938272,0,0)" xlink:href="#aM"/><use transform="matrix(0.04938271604938272,0,0,0.04938271604938272,9.876543209876544,0)" xlink:href="#aS"/><use transform="matrix(0.04938271604938272,0,0,0.04938271604938272,20.69135802469136,0)" xlink:href="#aZ"/></g><g id="K"><use transform="matrix(0.04938271604938272,0,0,0.04938271604938272,0,0)" xlink:href="#aY"/><use transform="matrix(0.04938271604938272,0,0,0.04938271604938272,10.814814814814815,0)" xlink:href="#bc"/><use transform="matrix(0.04938271604938272,0,0,0.04938271604938272,16.691358024691358,0)" xlink:href="#bd"/><use transform="matrix(0.04938271604938272,0,0,0.04938271604938272,27.50617283950617,0)" xlink:href="#bg"/><use transform="matrix(0.04938271604938272,0,0,0.04938271604938272,37.382716049382715,0)" xlink:href="#aO"/></g><path fill="#333" d="M195-6C206 82 75 100 31 46c-4-6-6-13-8-21l49-6c3 16 16 24 34 25 40 0 42-37 40-79-11 22-30 35-61 35-53 0-70-43-70-97 0-56 18-96 73-97 30 0 46 14 59 34l2-30h47zm-90-29c32 0 41-27 41-63 0-35-9-62-40-62-32 0-39 29-40 63 0 36 9 62 39 62" id="bs"/><g id="L"><use transform="matrix(0.04938271604938272,0,0,0.04938271604938272,0,0)" xlink:href="#aL"/><use transform="matrix(0.04938271604938272,0,0,0.04938271604938272,4.938271604938272,0)" xlink:href="#aQ"/><use transform="matrix(0.04938271604938272,0,0,0.04938271604938272,20.74074074074074,0)" xlink:href="#aM"/><use transform="matrix(0.04938271604938272,0,0,0.04938271604938272,30.617283950617285,0)" xlink:href="#bs"/><use transform="matrix(0.04938271604938272,0,0,0.04938271604938272,41.4320987654321,0)" xlink:href="#bg"/><use transform="matrix(0.04938271604938272,0,0,0.04938271604938272,51.308641975308646,0)" xlink:href="#aP"/></g><g id="M"><use transform="matrix(0.06172839506172839,0,0,0.06172839506172839,0,0)" xlink:href="#ah"/><use transform="matrix(0.06172839506172839,0,0,0.06172839506172839,15.987654320987653,0)" xlink:href="#ao"/><use transform="matrix(0.06172839506172839,0,0,0.06172839506172839,28.333333333333332,0)" xlink:href="#aq"/><use transform="matrix(0.06172839506172839,0,0,0.06172839506172839,34.50617283950617,0)" xlink:href="#ae"/><use transform="matrix(0.06172839506172839,0,0,0.06172839506172839,39.382716049382715,0)" xlink:href="#aI"/><use transform="matrix(0.06172839506172839,0,0,0.06172839506172839,45.55555555555556,0)" xlink:href="#ae"/><use transform="matrix(0.06172839506172839,0,0,0.06172839506172839,50.4320987654321,0)" xlink:href="#af"/><use transform="matrix(0.06172839506172839,0,0,0.06172839506172839,61.543209876543216,0)" xlink:href="#at"/><use transform="matrix(0.06172839506172839,0,0,0.06172839506172839,73.8888888888889,0)" xlink:href="#aq"/><use transform="matrix(0.06172839506172839,0,0,0.06172839506172839,80.06172839506173,0)" xlink:href="#ae"/><use transform="matrix(0.06172839506172839,0,0,0.06172839506172839,84.93827160493828,0)" xlink:href="#ao"/><use transform="matrix(0.06172839506172839,0,0,0.06172839506172839,97.28395061728396,0)" xlink:href="#ap"/></g><path fill="#3a414a" d="M197 0v-115H63V0H30v-248h33v105h134v-105h34V0h-34" id="bt"/><g id="N"><use transform="matrix(0.06172839506172839,0,0,0.06172839506172839,0,0)" xlink:href="#bt"/><use transform="matrix(0.06172839506172839,0,0,0.06172839506172839,15.987654320987653,0)" xlink:href="#Z"/><use transform="matrix(0.06172839506172839,0,0,0.06172839506172839,28.333333333333332,0)" xlink:href="#aE"/></g><g id="O"><use transform="matrix(0.04938271604938272,0,0,0.04938271604938272,0,0)" xlink:href="#aV"/><use transform="matrix(0.04938271604938272,0,0,0.04938271604938272,11.851851851851853,0)" xlink:href="#aQ"/><use transform="matrix(0.04938271604938272,0,0,0.04938271604938272,27.654320987654323,0)" xlink:href="#aM"/><use transform="matrix(0.04938271604938272,0,0,0.04938271604938272,37.53086419753087,0)" xlink:href="#aL"/><use transform="matrix(0.04938271604938272,0,0,0.04938271604938272,42.46913580246914,0)" xlink:href="#aT"/></g><path fill="#333" d="M121-226c-27-7-43 5-38 36h38v33H83V0H34v-157H6v-33h28c-9-59 32-81 87-68v32" id="bu"/><g id="P"><use transform="matrix(0.04938271604938272,0,0,0.04938271604938272,0,0)" xlink:href="#bp"/><use transform="matrix(0.04938271604938272,0,0,0.04938271604938272,12.790123456790125,0)" xlink:href="#aY"/><use transform="matrix(0.04938271604938272,0,0,0.04938271604938272,23.60493827160494,0)" xlink:href="#bc"/><use transform="matrix(0.04938271604938272,0,0,0.04938271604938272,29.481481481481485,0)" xlink:href="#aL"/><use transform="matrix(0.04938271604938272,0,0,0.04938271604938272,34.41975308641976,0)" xlink:href="#bu"/><use transform="matrix(0.04938271604938272,0,0,0.04938271604938272,40.296296296296305,0)" xlink:href="#aL"/><use transform="matrix(0.04938271604938272,0,0,0.04938271604938272,45.23456790123458,0)" xlink:href="#bi"/><use transform="matrix(0.04938271604938272,0,0,0.04938271604938272,55.111111111111114,0)" xlink:href="#aM"/><use transform="matrix(0.04938271604938272,0,0,0.04938271604938272,64.98765432098767,0)" xlink:href="#bc"/><use transform="matrix(0.04938271604938272,0,0,0.04938271604938272,70.86419753086422,0)" xlink:href="#aL"/><use transform="matrix(0.04938271604938272,0,0,0.04938271604938272,75.80246913580248,0)" xlink:href="#aY"/><use transform="matrix(0.04938271604938272,0,0,0.04938271604938272,86.61728395061729,0)" xlink:href="#aS"/><use transform="matrix(0.04938271604938272,0,0,0.04938271604938272,97.4320987654321,0)" xlink:href="#aP"/></g><g id="Q"><use transform="matrix(0.04938271604938272,0,0,0.04938271604938272,0,0)" xlink:href="#bq"/><use transform="matrix(0.04938271604938272,0,0,0.04938271604938272,9.82716049382716,0)" xlink:href="#aO"/><use transform="matrix(0.04938271604938272,0,0,0.04938271604938272,16.74074074074074,0)" xlink:href="#aL"/><use transform="matrix(0.04938271604938272,0,0,0.04938271604938272,21.679012345679013,0)" xlink:href="#bs"/><use transform="matrix(0.04938271604938272,0,0,0.04938271604938272,32.49382716049383,0)" xlink:href="#bs"/><use transform="matrix(0.04938271604938272,0,0,0.04938271604938272,43.308641975308646,0)" xlink:href="#bg"/><use transform="matrix(0.04938271604938272,0,0,0.04938271604938272,53.18518518518519,0)" xlink:href="#aO"/><use transform="matrix(0.04938271604938272,0,0,0.04938271604938272,60.09876543209877,0)" xlink:href="#aP"/></g><path d="M136-208V0H84v-208H4v-40h212v40h-80" id="bv"/><path d="M185-48c-13 30-37 53-82 52C43 2 14-33 14-96s30-98 90-98c62 0 83 45 84 108H66c0 31 8 55 39 56 18 0 30-7 34-22zm-45-69c5-46-57-63-70-21-2 6-4 13-4 21h74" id="bw"/><path d="M144 0l-44-69L55 0H2l70-98-66-92h53l41 62 40-62h54l-67 91 71 99h-54" id="bx"/><path d="M133-34C117-15 103 5 69 4 32 3 11-16 11-54c-1-60 55-63 116-61 1-26-3-47-28-47-18 1-26 9-28 27l-52-2c7-38 36-58 82-57s74 22 75 68l1 82c-1 14 12 18 25 15v27c-30 8-71 5-69-32zm-48 3c29 0 43-24 42-57-32 0-66-3-65 30 0 17 8 27 23 27" id="by"/><path d="M137-138c1-29-70-34-71-4 15 46 118 7 119 86 1 83-164 76-172 9l43-7c4 19 20 25 44 25 33 8 57-30 24-41C81-84 22-81 20-136c-2-80 154-74 161-7" id="bz"/><g id="R"><use transform="matrix(0.08395061728395059,0,0,0.08395061728395059,0,0)" xlink:href="#bv"/><use transform="matrix(0.08395061728395059,0,0,0.08395061728395059,16.118518518518513,0)" xlink:href="#bw"/><use transform="matrix(0.08395061728395059,0,0,0.08395061728395059,32.90864197530863,0)" xlink:href="#bx"/><use transform="matrix(0.08395061728395059,0,0,0.08395061728395059,49.69876543209875,0)" xlink:href="#by"/><use transform="matrix(0.08395061728395059,0,0,0.08395061728395059,66.48888888888888,0)" xlink:href="#bz"/></g><path d="M140-251c80 0 125 45 125 126S219 4 139 4C58 4 15-44 15-125s44-126 125-126zm-1 214c52 0 73-35 73-88 0-50-21-86-72-86-52 0-73 35-73 86s22 88 72 88" id="bA"/><path d="M115-3C79 11 28 4 28-45v-112H4v-33h27l15-45h31v45h36v33H77v99c-1 23 16 31 38 25v30" id="bB"/><path d="M110-194c64 0 96 36 96 99 0 64-35 99-97 99-61 0-95-36-95-99 0-62 34-99 96-99zm-1 164c35 0 45-28 45-65 0-40-10-65-43-65-34 0-45 26-45 65 0 36 10 65 43 65" id="bC"/><path d="M135-194c53 0 70 44 70 98 0 56-19 98-73 100-31 1-45-17-59-34 3 33 2 69 2 105H25l-1-265h48c2 10 0 23 3 31 11-24 29-35 60-35zM114-30c33 0 39-31 40-66 0-38-9-64-40-64-56 0-55 130 0 130" id="bD"/><path d="M135-150c-39-12-60 13-60 57V0H25l-1-190h47c2 13-1 29 3 40 6-28 27-53 61-41v41" id="bE"/><path d="M25-224v-37h50v37H25zM25 0v-190h50V0H25" id="bF"/><g id="S"><use transform="matrix(0.08395061728395059,0,0,0.08395061728395059,0,0)" xlink:href="#bA"/><use transform="matrix(0.08395061728395059,0,0,0.08395061728395059,23.506172839506164,0)" xlink:href="#bz"/><use transform="matrix(0.08395061728395059,0,0,0.08395061728395059,40.29629629629628,0)" xlink:href="#bB"/><use transform="matrix(0.08395061728395059,0,0,0.08395061728395059,50.286419753086406,0)" xlink:href="#bw"/><use transform="matrix(0.08395061728395059,0,0,0.08395061728395059,67.07654320987652,0)" xlink:href="#bC"/><use transform="matrix(0.08395061728395059,0,0,0.08395061728395059,85.4617283950617,0)" xlink:href="#bD"/><use transform="matrix(0.08395061728395059,0,0,0.08395061728395059,103.84691358024688,0)" xlink:href="#bC"/><use transform="matrix(0.08395061728395059,0,0,0.08395061728395059,122.23209876543206,0)" xlink:href="#bE"/><use transform="matrix(0.08395061728395059,0,0,0.08395061728395059,133.98518518518514,0)" xlink:href="#bC"/><use transform="matrix(0.08395061728395059,0,0,0.08395061728395059,152.37037037037032,0)" xlink:href="#bz"/><use transform="matrix(0.08395061728395059,0,0,0.08395061728395059,169.16049382716045,0)" xlink:href="#bF"/><use transform="matrix(0.08395061728395059,0,0,0.08395061728395059,177.5555555555555,0)" xlink:href="#bz"/></g><path d="M76-208v77h127v40H76V0H24v-248h183v40H76" id="bG"/><path d="M85 4C-2 5 27-109 22-190h50c7 57-23 150 33 157 60-5 35-97 40-157h50l1 190h-47c-2-12 1-28-3-38-12 25-28 42-61 42" id="bH"/><path d="M135-194c87-1 58 113 63 194h-50c-7-57 23-157-34-157-59 0-34 97-39 157H25l-1-190h47c2 12-1 28 3 38 12-26 28-41 61-42" id="bI"/><path d="M88-194c31-1 46 15 58 34l-1-101h50l1 261h-48c-2-10 0-23-3-31C134-8 116 4 84 4 32 4 16-41 15-95c0-56 19-97 73-99zm17 164c33 0 40-30 41-66 1-37-9-64-41-64s-38 30-39 65c0 43 13 65 39 65" id="bJ"/><g id="T"><use transform="matrix(0.08395061728395059,0,0,0.08395061728395059,0,0)" xlink:href="#bG"/><use transform="matrix(0.08395061728395059,0,0,0.08395061728395059,18.38518518518518,0)" xlink:href="#bC"/><use transform="matrix(0.08395061728395059,0,0,0.08395061728395059,36.77037037037036,0)" xlink:href="#bH"/><use transform="matrix(0.08395061728395059,0,0,0.08395061728395059,55.15555555555554,0)" xlink:href="#bI"/><use transform="matrix(0.08395061728395059,0,0,0.08395061728395059,73.54074074074072,0)" xlink:href="#bJ"/><use transform="matrix(0.08395061728395059,0,0,0.08395061728395059,91.9259259259259,0)" xlink:href="#by"/><use transform="matrix(0.08395061728395059,0,0,0.08395061728395059,108.71604938271601,0)" xlink:href="#bB"/><use transform="matrix(0.08395061728395059,0,0,0.08395061728395059,118.70617283950614,0)" xlink:href="#bF"/><use transform="matrix(0.08395061728395059,0,0,0.08395061728395059,127.10123456790119,0)" xlink:href="#bC"/><use transform="matrix(0.08395061728395059,0,0,0.08395061728395059,145.48641975308638,0)" xlink:href="#bI"/></g><path d="M137 0h-34L2-248h35l83 218 83-218h36" id="bK"/><path d="M100-194c62-1 85 37 85 99 1 63-27 99-86 99S16-35 15-95c0-66 28-99 85-99zM99-20c44 1 53-31 53-75 0-43-8-75-51-75s-53 32-53 75 10 74 51 75" id="bL"/><path d="M24 0v-261h32V0H24" id="bM"/><path d="M84 4C-5 8 30-112 23-190h32v120c0 31 7 50 39 49 72-2 45-101 50-169h31l1 190h-30c-1-10 1-25-2-33-11 22-28 36-60 37" id="bN"/><path d="M117-194c89-4 53 116 60 194h-32v-121c0-31-8-49-39-48C34-167 62-67 57 0H25l-1-190h30c1 10-1 24 2 32 11-22 29-35 61-36" id="bO"/><path d="M59-47c-2 24 18 29 38 22v24C64 9 27 4 27-40v-127H5v-23h24l9-43h21v43h35v23H59v120" id="bP"/><path d="M100-194c63 0 86 42 84 106H49c0 40 14 67 53 68 26 1 43-12 49-29l28 8c-11 28-37 45-77 45C44 4 14-33 15-96c1-61 26-98 85-98zm52 81c6-60-76-77-97-28-3 7-6 17-6 28h103" id="bQ"/><path d="M114-163C36-179 61-72 57 0H25l-1-190h30c1 12-1 29 2 39 6-27 23-49 58-41v29" id="bR"/><g id="U"><use transform="matrix(0.08395061728395059,0,0,0.08395061728395059,0,0)" xlink:href="#bK"/><use transform="matrix(0.08395061728395059,0,0,0.08395061728395059,18.46913580246913,0)" xlink:href="#bL"/><use transform="matrix(0.08395061728395059,0,0,0.08395061728395059,35.25925925925925,0)" xlink:href="#bM"/><use transform="matrix(0.08395061728395059,0,0,0.08395061728395059,41.89135802469135,0)" xlink:href="#bN"/><use transform="matrix(0.08395061728395059,0,0,0.08395061728395059,58.68148148148147,0)" xlink:href="#bO"/><use transform="matrix(0.08395061728395059,0,0,0.08395061728395059,75.47160493827158,0)" xlink:href="#bP"/><use transform="matrix(0.08395061728395059,0,0,0.08395061728395059,83.86666666666665,0)" xlink:href="#bQ"/><use transform="matrix(0.08395061728395059,0,0,0.08395061728395059,100.65679012345677,0)" xlink:href="#bQ"/><use transform="matrix(0.08395061728395059,0,0,0.08395061728395059,117.4469135802469,0)" xlink:href="#bR"/></g><path d="M240 0l2-218c-23 76-54 145-80 218h-23L58-218 59 0H30v-248h44l77 211c21-75 51-140 76-211h43V0h-30" id="bS"/><path d="M141-36C126-15 110 5 73 4 37 3 15-17 15-53c-1-64 63-63 125-63 3-35-9-54-41-54-24 1-41 7-42 31l-33-3c5-37 33-52 76-52 45 0 72 20 72 64v82c-1 20 7 32 28 27v20c-31 9-61-2-59-35zM48-53c0 20 12 33 32 33 41-3 63-29 60-74-43 2-92-5-92 41" id="bT"/><path d="M177-190C167-65 218 103 67 71c-23-6-38-20-44-43l32-5c15 47 100 32 89-28v-30C133-14 115 1 83 1 29 1 15-40 15-95c0-56 16-97 71-98 29-1 48 16 59 35 1-10 0-23 2-32h30zM94-22c36 0 50-32 50-73 0-42-14-75-50-75-39 0-46 34-46 75s6 73 46 73" id="bU"/><path d="M210-169c-67 3-38 105-44 169h-31v-121c0-29-5-50-35-48C34-165 62-65 56 0H25l-1-190h30c1 10-1 24 2 32 10-44 99-50 107 0 11-21 27-35 58-36 85-2 47 119 55 194h-31v-121c0-29-5-49-35-48" id="bV"/><g id="V"><use transform="matrix(0.08395061728395059,0,0,0.08395061728395059,0,0)" xlink:href="#bS"/><use transform="matrix(0.08395061728395059,0,0,0.08395061728395059,25.101234567901226,0)" xlink:href="#bT"/><use transform="matrix(0.08395061728395059,0,0,0.08395061728395059,41.89135802469134,0)" xlink:href="#bO"/><use transform="matrix(0.08395061728395059,0,0,0.08395061728395059,58.68148148148146,0)" xlink:href="#bT"/><use transform="matrix(0.08395061728395059,0,0,0.08395061728395059,75.47160493827158,0)" xlink:href="#bU"/><use transform="matrix(0.08395061728395059,0,0,0.08395061728395059,92.26172839506172,0)" xlink:href="#bQ"/><use transform="matrix(0.08395061728395059,0,0,0.08395061728395059,109.05185185185184,0)" xlink:href="#bV"/><use transform="matrix(0.08395061728395059,0,0,0.08395061728395059,134.15308641975307,0)" xlink:href="#bQ"/><use transform="matrix(0.08395061728395059,0,0,0.08395061728395059,150.9432098765432,0)" xlink:href="#bO"/><use transform="matrix(0.08395061728395059,0,0,0.08395061728395059,167.73333333333332,0)" xlink:href="#bP"/></g><path d="M185-189c-5-48-123-54-124 2 14 75 158 14 163 119 3 78-121 87-175 55-17-10-28-26-33-46l33-7c5 56 141 63 141-1 0-78-155-14-162-118-5-82 145-84 179-34 5 7 8 16 11 25" id="bW"/><path d="M179-190L93 31C79 59 56 82 12 73V49c39 6 53-20 64-50L1-190h34L92-34l54-156h33" id="bX"/><path d="M135-143c-3-34-86-38-87 0 15 53 115 12 119 90S17 21 10-45l28-5c4 36 97 45 98 0-10-56-113-15-118-90-4-57 82-63 122-42 12 7 21 19 24 35" id="bY"/><g id="W"><use transform="matrix(0.08395061728395059,0,0,0.08395061728395059,0,0)" xlink:href="#bW"/><use transform="matrix(0.08395061728395059,0,0,0.08395061728395059,20.14814814814814,0)" xlink:href="#bX"/><use transform="matrix(0.08395061728395059,0,0,0.08395061728395059,35.25925925925925,0)" xlink:href="#bY"/><use transform="matrix(0.08395061728395059,0,0,0.08395061728395059,50.37037037037037,0)" xlink:href="#bP"/><use transform="matrix(0.08395061728395059,0,0,0.08395061728395059,58.765432098765416,0)" xlink:href="#bQ"/><use transform="matrix(0.08395061728395059,0,0,0.08395061728395059,75.55555555555554,0)" xlink:href="#bV"/></g></defs></g></svg>